<svg width="400" height="400" viewBox="0 0 400 400" fill="none" xmlns="http://www.w3.org/2000/svg">
<path d="M28.4062 221.238C25.875 224.215 22.1602 225.703 17.2617 225.703C13.207 225.703 10.1133 224.531 7.98047 222.188C5.87109 219.82 4.80469 216.328 4.78125 211.711V186.961H11.2852V211.535C11.2852 217.301 13.6289 220.184 18.3164 220.184C23.2852 220.184 26.5898 218.332 28.2305 214.629V186.961H34.7344V225H28.5469L28.4062 221.238ZM50.8008 186.961L51.0117 191.742C53.918 188.086 57.7148 186.258 62.4023 186.258C70.4414 186.258 74.4961 190.793 74.5664 199.863V225H68.0625V199.828C68.0391 197.086 67.4062 195.059 66.1641 193.746C64.9453 192.434 63.0352 191.777 60.4336 191.777C58.3242 191.777 56.4727 192.34 54.8789 193.465C53.2852 194.59 52.043 196.066 51.1523 197.895V225H44.6484V186.961H50.8008ZM91.4414 225H84.9375V186.961H91.4414V225ZM84.4102 176.871C84.4102 175.816 84.7266 174.926 85.3594 174.199C86.0156 173.473 86.9766 173.109 88.2422 173.109C89.5078 173.109 90.4688 173.473 91.125 174.199C91.7812 174.926 92.1094 175.816 92.1094 176.871C92.1094 177.926 91.7812 178.805 91.125 179.508C90.4688 180.211 89.5078 180.562 88.2422 180.562C86.9766 180.562 86.0156 180.211 85.3594 179.508C84.7266 178.805 84.4102 177.926 84.4102 176.871Z" fill="#7000E0"/>
<path d="M100.16 205.629C100.16 201.902 100.887 198.551 102.34 195.574C103.816 192.598 105.855 190.301 108.457 188.684C111.082 187.066 114.07 186.258 117.422 186.258C122.602 186.258 126.785 188.051 129.973 191.637C133.184 195.223 134.789 199.992 134.789 205.945V206.402C134.789 210.105 134.074 213.434 132.645 216.387C131.238 219.316 129.211 221.602 126.562 223.242C123.938 224.883 120.914 225.703 117.492 225.703C112.336 225.703 108.152 223.91 104.941 220.324C101.754 216.738 100.16 211.992 100.16 206.086V205.629ZM106.699 206.402C106.699 210.621 107.672 214.008 109.617 216.562C111.586 219.117 114.211 220.395 117.492 220.395C120.797 220.395 123.422 219.105 125.367 216.527C127.312 213.926 128.285 210.293 128.285 205.629C128.285 201.457 127.289 198.082 125.297 195.504C123.328 192.902 120.703 191.602 117.422 191.602C114.211 191.602 111.621 192.879 109.652 195.434C107.684 197.988 106.699 201.645 106.699 206.402ZM161.332 192.797C160.348 192.633 159.281 192.551 158.133 192.551C153.867 192.551 150.973 194.367 149.449 198V225H142.945V186.961H149.273L149.379 191.355C151.512 187.957 154.535 186.258 158.449 186.258C159.715 186.258 160.676 186.422 161.332 186.75V192.797ZM165.094 205.664C165.094 199.734 166.465 195.023 169.207 191.531C171.949 188.016 175.582 186.258 180.105 186.258C184.746 186.258 188.367 187.898 190.969 191.18L191.285 186.961H197.227V224.086C197.227 229.008 195.762 232.887 192.832 235.723C189.926 238.559 186.012 239.977 181.09 239.977C178.348 239.977 175.664 239.391 173.039 238.219C170.414 237.047 168.41 235.441 167.027 233.402L170.402 229.5C173.191 232.945 176.602 234.668 180.633 234.668C183.797 234.668 186.258 233.777 188.016 231.996C189.797 230.215 190.688 227.707 190.688 224.473V221.203C188.086 224.203 184.535 225.703 180.035 225.703C175.582 225.703 171.973 223.91 169.207 220.324C166.465 216.738 165.094 211.852 165.094 205.664ZM171.633 206.402C171.633 210.691 172.512 214.066 174.27 216.527C176.027 218.965 178.488 220.184 181.652 220.184C185.754 220.184 188.766 218.32 190.688 214.594V197.227C188.695 193.594 185.707 191.777 181.723 191.777C178.559 191.777 176.086 193.008 174.305 195.469C172.523 197.93 171.633 201.574 171.633 206.402Z" fill="black"/>
</svg>
